<svg width="20" height="20" viewBox="0 0 20 20" fill="none" xmlns="http://www.w3.org/2000/svg">
<path d="M10 0C12.6522 0 15.1957 1.05357 17.0711 2.92893C18.9464 4.8043 20 7.34784 20 10C20 12.6522 18.9464 15.1957 17.0711 17.0711C15.1957 18.9464 12.6522 20 10 20C7.34784 20 4.8043 18.9464 2.92893 17.0711C1.05357 15.1957 0 12.6522 0 10C0 7.34784 1.05357 4.8043 2.92893 2.92893C4.8043 1.05357 7.34784 0 10 0V0ZM8.75 11.875C8.75 10.84 8.19 10 7.5 10C6.81 10 6.25 10.84 6.25 11.875C6.25 12.91 6.81 13.75 7.5 13.75C8.19 13.75 8.75 12.91 8.75 11.875ZM5.35625 8.04125C5.4998 8.12413 5.67039 8.14659 5.8305 8.10369C5.99061 8.06079 6.12712 7.95605 6.21 7.8125C6.59389 7.14708 7.14632 6.59454 7.81166 6.21052C8.47701 5.8265 9.23178 5.62455 10 5.625C11.6187 5.625 13.0325 6.50375 13.79 7.8125C13.8735 7.95488 14.0099 8.05846 14.1694 8.10065C14.329 8.14283 14.4988 8.12019 14.6417 8.03767C14.7846 7.95515 14.8891 7.81944 14.9323 7.66017C14.9756 7.50089 14.9541 7.33097 14.8725 7.1875C14.3789 6.33206 13.6687 5.62173 12.8133 5.128C11.958 4.63426 10.9876 4.37455 10 4.375C9.01242 4.37481 8.04219 4.63462 7.18687 5.12833C6.33155 5.62204 5.62129 6.33223 5.1275 7.1875C5.04462 7.33105 5.02216 7.50164 5.06506 7.66175C5.10796 7.82186 5.2127 7.95837 5.35625 8.04125ZM12.5 10C11.81 10 11.25 10.84 11.25 11.875C11.25 12.91 11.81 13.75 12.5 13.75C13.19 13.75 13.75 12.91 13.75 11.875C13.75 10.84 13.19 10 12.5 10Z" fill="#9747FF"/>
</svg>
