<svg width="482" height="56" viewBox="0 0 482 56" fill="none" xmlns="http://www.w3.org/2000/svg">
<g filter="url(#filter0_f_5_274)">
<path d="M15.4108 54C8.24275 54 2.41875 48.176 2.41875 41.008C2.41875 40.048 3.18675 39.344 4.14675 39.344C5.04275 39.344 5.81075 40.048 5.81075 41.008C5.81075 46.32 10.0988 50.608 15.4108 50.608C20.7228 50.608 25.0108 46.32 25.0108 41.008V4.528C25.0108 3.568 25.7788 2.8 26.6748 2.8C27.6348 2.8 28.4028 3.568 28.4028 4.528V41.008C28.4028 48.176 22.5788 54 15.4108 54ZM61.8018 54C57.1937 54 52.7777 52.208 49.5137 48.88C46.1857 45.616 44.3937 41.2 44.3937 36.592V4.464C44.3937 3.568 45.1617 2.8 46.0577 2.8C47.0177 2.8 47.7217 3.568 47.7217 4.464V36.592C47.7217 40.304 49.1937 43.888 51.8817 46.512C54.5057 49.2 58.0897 50.672 61.8018 50.672C65.5777 50.672 69.0977 49.2 71.7857 46.512C74.4098 43.888 75.8818 40.304 75.8818 36.592V4.464C75.8818 3.568 76.6497 2.8 77.5457 2.8C78.5057 2.8 79.2098 3.568 79.2098 4.464V36.592C79.2098 41.2 77.4178 45.616 74.1538 48.88C70.8258 52.208 66.4737 54 61.8018 54ZM119.309 54H99.5972C97.1652 54 95.1812 52.016 95.1812 49.584V4.464C95.1812 3.568 95.9492 2.8 96.8452 2.8C97.8052 2.8 98.5732 3.568 98.5732 4.464V49.584C98.5732 50.16 99.0212 50.608 99.5972 50.608H119.309C120.205 50.608 120.973 51.376 120.973 52.336C120.973 53.232 120.205 54 119.309 54ZM138.633 54C137.673 54 136.969 53.232 136.969 52.336V4.464C136.969 3.568 137.673 2.8 138.633 2.8C139.529 2.8 140.297 3.568 140.297 4.464V52.336C140.297 53.232 139.529 54 138.633 54ZM157.919 53.808C157.727 53.808 157.599 53.744 157.407 53.68C156.511 53.424 156.063 52.464 156.383 51.568L172.063 5.552C172.703 3.76 174.303 2.608 176.223 2.608C178.143 2.608 179.807 3.76 180.447 5.552L189.407 31.728C189.983 33.072 189.791 34.544 189.023 35.76C188.255 36.912 186.975 37.616 185.631 37.616H173.343C172.959 37.616 172.703 37.872 172.703 38.256C172.703 38.64 172.959 38.896 173.343 38.896H188.127C190.047 38.896 191.775 40.048 192.479 41.84L192.543 41.904L196.063 51.504C196.383 52.4 195.935 53.36 195.039 53.68C194.207 54 193.247 53.552 192.927 52.656L189.407 43.12C189.151 42.608 188.703 42.288 188.127 42.288H173.343C171.103 42.288 169.311 40.496 169.311 38.256C169.311 36.016 171.103 34.224 173.343 34.224H185.631C185.951 34.224 186.143 34.032 186.271 33.904C186.335 33.776 186.527 33.456 186.335 33.008L186.271 32.944V32.88L177.247 6.64C177.055 6 176.479 5.936 176.223 5.936C176.031 5.936 175.455 6 175.263 6.64L159.519 52.656C159.263 53.36 158.623 53.808 157.919 53.808ZM298.953 54C297.993 54 297.225 53.232 297.225 52.336V7.088C297.225 6.512 296.841 6.384 296.649 6.32C296.393 6.256 296.009 6.256 295.817 6.768L281.033 41.008C280.393 42.48 278.921 43.44 277.257 43.44C275.593 43.44 274.185 42.48 273.481 41.008L258.569 6.576C258.377 6.128 257.929 6.128 257.737 6.192C257.481 6.192 257.097 6.384 257.097 6.896V52.08C257.097 53.04 256.393 53.744 255.433 53.744C254.537 53.744 253.769 53.04 253.769 52.08V6.896C253.769 5.872 254.089 4.912 254.793 4.208C255.369 3.568 256.137 3.056 257.033 2.864C257.929 2.736 258.825 2.8 259.657 3.184C260.553 3.632 261.193 4.336 261.641 5.296L276.553 39.664C276.745 40.048 277.065 40.112 277.257 40.112C277.449 40.112 277.769 40.048 277.961 39.664L292.745 5.424C293.129 4.464 293.833 3.76 294.729 3.376C295.497 2.992 296.457 2.864 297.289 3.056C298.185 3.248 299.017 3.696 299.593 4.336C300.233 5.104 300.617 6.064 300.617 7.088V52.336C300.617 53.232 299.849 54 298.953 54ZM318.219 53.808C318.027 53.808 317.899 53.744 317.707 53.68C316.811 53.424 316.363 52.464 316.683 51.568L332.363 5.552C333.003 3.76 334.603 2.608 336.523 2.608C338.443 2.608 340.107 3.76 340.747 5.552L349.707 31.728C350.283 33.072 350.091 34.544 349.323 35.76C348.555 36.912 347.275 37.616 345.931 37.616H333.643C333.259 37.616 333.003 37.872 333.003 38.256C333.003 38.64 333.259 38.896 333.643 38.896H348.427C350.347 38.896 352.075 40.048 352.779 41.84L352.843 41.904L356.363 51.504C356.683 52.4 356.235 53.36 355.339 53.68C354.507 54 353.547 53.552 353.227 52.656L349.707 43.12C349.451 42.608 349.003 42.288 348.427 42.288H333.643C331.403 42.288 329.611 40.496 329.611 38.256C329.611 36.016 331.403 34.224 333.643 34.224H345.931C346.251 34.224 346.443 34.032 346.571 33.904C346.635 33.776 346.827 33.456 346.635 33.008L346.571 32.944V32.88L337.547 6.64C337.355 6 336.779 5.936 336.523 5.936C336.331 5.936 335.755 6 335.563 6.64L319.819 52.656C319.563 53.36 318.923 53.808 318.219 53.808ZM374.133 53.808C373.237 53.808 372.469 53.104 372.469 52.144V7.024C372.469 4.592 374.453 2.608 376.885 2.608H393.973C397.493 2.608 400.885 4.016 403.381 6.512C405.877 9.008 407.221 12.336 407.221 15.92C407.221 19.44 405.877 22.768 403.381 25.264C400.885 27.76 397.493 29.168 393.973 29.168H382.197C381.941 29.168 381.749 29.36 381.749 29.616C381.749 29.872 381.941 30.128 382.197 30.128H393.013C394.677 30.128 396.277 30.576 397.749 31.408C399.157 32.304 400.309 33.584 401.013 35.056L409.205 51.312C409.653 52.144 409.333 53.168 408.501 53.616C407.669 54 406.645 53.68 406.261 52.848L398.069 36.528C397.045 34.672 395.125 33.456 393.013 33.456H382.197C380.085 33.456 378.357 31.728 378.357 29.616C378.357 27.504 380.085 25.84 382.197 25.84H393.973C399.477 25.84 403.893 21.36 403.893 15.92C403.893 10.416 399.477 6 393.973 6H376.885C376.309 6 375.797 6.448 375.797 7.024V52.144C375.797 53.104 375.093 53.808 374.133 53.808ZM427.045 54C426.085 54 425.381 53.232 425.381 52.336V4.464C425.381 3.568 426.085 2.8 427.045 2.8C427.941 2.8 428.709 3.568 428.709 4.464V52.336C428.709 53.232 427.941 54 427.045 54ZM446.395 53.744C445.499 53.744 444.731 52.976 444.731 52.08V7.792C444.731 5.872 446.011 4.208 447.867 3.76C449.787 3.312 451.643 4.208 452.539 5.936L474.811 49.904C475.067 50.352 475.451 50.352 475.707 50.288C475.899 50.224 476.283 50.032 476.283 49.52V4.208C476.283 3.312 477.051 2.544 477.947 2.544C478.907 2.544 479.611 3.312 479.611 4.208V49.52C479.611 51.504 478.395 53.104 476.475 53.552C474.555 54 472.699 53.168 471.803 51.376L449.531 7.472C449.275 6.96 448.891 7.024 448.699 7.088C448.443 7.088 448.123 7.28 448.123 7.792V52.08C448.123 52.976 447.355 53.744 446.395 53.744Z" fill="#E1E1E1" fill-opacity="0.25"/>
</g>
<defs>
<filter id="filter0_f_5_274" x="0.418945" y="0.543945" width="481.192" height="55.4561" filterUnits="userSpaceOnUse" color-interpolation-filters="sRGB">
<feFlood flood-opacity="0" result="BackgroundImageFix"/>
<feBlend mode="normal" in="SourceGraphic" in2="BackgroundImageFix" result="shape"/>
<feGaussianBlur stdDeviation="1" result="effect1_foregroundBlur_5_274"/>
</filter>
</defs>
</svg>
