<svg width="34" height="40" viewBox="0 0 34 40" fill="none" xmlns="http://www.w3.org/2000/svg">
<g filter="url(#filter0_f_5_203)">
<path d="M10.2944 38.6C5.13934 38.6 0.950427 34.4111 0.950427 29.256H0.150427C0.150427 34.8529 4.69751 39.4 10.2944 39.4V38.6ZM0.950427 29.256C0.950427 28.7765 1.32724 28.408 1.84643 28.408V27.608C0.925616 27.608 0.150427 28.2955 0.150427 29.256H0.950427ZM1.84643 28.408C2.30764 28.408 2.69443 28.7669 2.69443 29.256H3.49443C3.49443 28.3051 2.72922 27.608 1.84643 27.608V28.408ZM2.69443 29.256C2.69443 33.4609 6.08951 36.856 10.2944 36.856V36.056C6.53134 36.056 3.49443 33.0191 3.49443 29.256H2.69443ZM10.2944 36.856C14.4993 36.856 17.8944 33.4609 17.8944 29.256H17.0944C17.0944 33.0191 14.0575 36.056 10.2944 36.056V36.856ZM17.8944 29.256V1.896H17.0944V29.256H17.8944ZM17.8944 1.896C17.8944 1.38705 18.3011 0.999999 18.7424 0.999999V0.199999C17.8398 0.199999 17.0944 0.964941 17.0944 1.896H17.8944ZM18.7424 0.999999C19.2415 0.999999 19.6384 1.39691 19.6384 1.896H20.4384C20.4384 0.955083 19.6833 0.199999 18.7424 0.199999V0.999999ZM19.6384 1.896V29.256H20.4384V1.896H19.6384ZM19.6384 29.256C19.6384 34.4111 15.4495 38.6 10.2944 38.6V39.4C15.8913 39.4 20.4384 34.8529 20.4384 29.256H19.6384ZM29.8237 38.52L29.514 38.7734L29.52 38.7803L29.8237 38.52ZM30.0637 36.744L30.3037 37.064L30.3093 37.0597L30.0637 36.744ZM28.0477 36.744L28.301 36.4343L28.2933 36.4283L28.0477 36.744ZM28.2397 38.52L28.5493 38.7733L28.2397 38.52ZM26.5117 38.712L26.7651 38.4023L26.7563 38.3955L26.5117 38.712ZM31.5997 38.712L31.3644 38.3885L31.357 38.3939L31.3498 38.3997L31.5997 38.712ZM30.8317 38.6C30.5665 38.6 30.3408 38.5086 30.1274 38.2597L29.52 38.7803C29.8826 39.2034 30.3288 39.4 30.8317 39.4V38.6ZM30.1333 38.2667C29.8493 37.9196 29.9047 37.3632 30.3037 37.064L29.8237 36.424C29.0707 36.9888 28.9341 38.0644 29.5141 38.7733L30.1333 38.2667ZM30.3093 37.0597C30.8345 36.6512 31.1357 36.0566 31.1357 35.4H30.3357C30.3357 35.7994 30.1568 36.1648 29.8181 36.4283L30.3093 37.0597ZM31.1357 35.4C31.1357 34.2671 30.1886 33.32 29.0557 33.32V34.12C29.7468 34.12 30.3357 34.7089 30.3357 35.4H31.1357ZM29.0557 33.32C27.8821 33.32 26.9277 34.2598 26.9277 35.4H27.7277C27.7277 34.7162 28.3092 34.12 29.0557 34.12V33.32ZM26.9277 35.4C26.9277 36.0796 27.2973 36.6671 27.8021 37.0597L28.2933 36.4283C27.9341 36.1489 27.7277 35.7764 27.7277 35.4H26.9277ZM27.7944 37.0536C28.1579 37.351 28.217 37.9161 27.9301 38.2667L28.5493 38.7733C29.1264 38.0679 28.9935 37.001 28.301 36.4344L27.7944 37.0536ZM27.9301 38.2667C27.6307 38.6327 27.1132 38.6873 26.765 38.4024L26.2584 39.0216C26.9662 39.6007 27.9847 39.4633 28.5493 38.7733L27.9301 38.2667ZM26.7563 38.3955C25.7908 37.6494 25.2317 36.563 25.2317 35.4H24.4317C24.4317 36.829 25.1206 38.1426 26.2671 39.0285L26.7563 38.3955ZM25.2317 35.4C25.2317 33.314 26.9275 31.576 29.0557 31.576V30.776C26.4798 30.776 24.4317 32.878 24.4317 35.4H25.2317ZM29.0557 31.576C31.1328 31.576 32.8317 33.311 32.8317 35.4H33.6317C33.6317 32.881 31.5865 30.776 29.0557 30.776V31.576ZM32.8317 35.4C32.8317 36.5803 32.3074 37.7027 31.3644 38.3885L31.8349 39.0355C33.004 38.1853 33.6317 36.8117 33.6317 35.4H32.8317ZM31.3498 38.3997C31.1685 38.5447 31.0144 38.6 30.8317 38.6V39.4C31.225 39.4 31.5508 39.2633 31.8496 39.0243L31.3498 38.3997Z" fill="white"/>
</g>
<defs>
<filter id="filter0_f_5_203" x="0.41696" y="0.466764" width="32.9478" height="38.8106" filterUnits="userSpaceOnUse" color-interpolation-filters="sRGB">
<feFlood flood-opacity="0" result="BackgroundImageFix"/>
<feBlend mode="normal" in="SourceGraphic" in2="BackgroundImageFix" result="shape"/>
<feGaussianBlur stdDeviation="0.0666667" result="effect1_foregroundBlur_5_203"/>
</filter>
</defs>
</svg>
